<svg xmlns="http://www.w3.org/2000/svg" width="32" height="32" viewBox="0 0 32 32" fill="none">
<circle cx="15" cy="15" r="14.5" fill="white" stroke="#1C2642"/>
<path fill-rule="evenodd" clip-rule="evenodd" d="M13.2899 12.9845H15.7597V14.2147C16.1155 13.5072 17.0279 12.8714 18.3984 12.8714C21.0258 12.8714 21.6496 14.2799 21.6496 16.8641V21.6501H18.9896V17.4526C18.9896 15.981 18.6338 15.1511 17.7281 15.1511C16.4719 15.1511 15.9499 16.0455 15.9499 17.452V21.6501H13.2899V12.9845ZM8.72866 21.537H11.3887V12.8714H8.72866V21.537ZM11.7697 10.0458C11.7698 10.2688 11.7256 10.4896 11.6396 10.6953C11.5537 10.901 11.4277 11.0876 11.269 11.2442C10.9474 11.5638 10.5121 11.7427 10.0587 11.7416C9.60605 11.7413 9.17176 11.5628 8.84969 11.2448C8.69156 11.0877 8.56599 10.9009 8.48018 10.6952C8.39436 10.4894 8.34999 10.2688 8.34961 10.0458C8.34961 9.59564 8.52916 9.16472 8.85035 8.84685C9.17214 8.52842 9.60662 8.3499 10.0593 8.3501C10.5129 8.3501 10.9478 8.52898 11.269 8.84685C11.5895 9.16472 11.7697 9.59564 11.7697 10.0458Z" fill="#1C2642"/>
</svg>