<svg xmlns="http://www.w3.org/2000/svg" xmlns:xlink="http://www.w3.org/1999/xlink" version="1.1" id="Layer_1" x="0px" y="0px" viewBox="0 0 20 20" style="enable-background:new 0 0 20 20;" xml:space="preserve">
<style type="text/css">
	.st0{fill:#2E364E;}
</style>
<g>
	<path class="st0" d="M17.5,1.4v1c0,1-0.8,1.8-1.8,1.8h-0.1c-1,0-1.8-0.8-1.8-1.8V1.3h-2v1.1c0,1-0.8,1.8-1.8,1.8H9.9   c-1,0-1.8-0.8-1.8-1.8V1.3h-2v1.1c0,1-0.8,1.8-1.8,1.8H4.2c-1,0-1.8-0.8-1.8-1.8v-1c-1.2,0.4-2,1.5-2,2.8v12.9   c0,1.6,1.3,2.9,2.9,2.9h13.4c1.6,0,2.9-1.3,2.9-2.9V4.2C19.5,2.8,18.7,1.7,17.5,1.4z M18.1,16.8c0,0.9-0.7,1.7-1.7,1.7h-13   c-0.9,0-1.7-0.8-1.7-1.7V7.6c0-0.6,0.5-1.1,1.1-1.1h14c0.6,0,1.1,0.5,1.1,1.1L18.1,16.8L18.1,16.8z"/>
	<path class="st0" d="M4.1,3.3L4.1,3.3c0.4,0,0.6-0.1,0.8-0.3C5,2.8,5.1,2.6,5.1,2.4l0,0V1.1l0,0c0-0.3-0.1-0.5-0.3-0.7l0,0l0,0   C4.7,0.2,4.5,0.1,4.2,0.1H4.1c-0.3,0-0.5,0.1-0.7,0.3l0,0l0,0C3.3,0.6,3.2,0.8,3.2,1.1l0,0v1.3l0,0c0,0.2,0.1,0.4,0.2,0.6   C3.6,3.2,3.9,3.3,4.1,3.3z"/>
	<path class="st0" d="M9.3,3.1C9.3,3.2,9.3,3.2,9.3,3.1C9.3,3.2,9.3,3.1,9.3,3.1c0.2,0.1,0.3,0.2,0.5,0.2l0,0h0.1l0,0   c0.2,0,0.3,0,0.4-0.1l0,0l0,0c0.3-0.2,0.5-0.5,0.5-0.8V1.1c0-0.3-0.1-0.6-0.4-0.8l0,0l0,0C10.2,0.2,10,0.1,9.8,0.1H9.7   c-0.2,0-0.5,0.1-0.6,0.2l0,0l0,0C9,0.6,8.9,0.8,8.9,1.1v1.3C8.9,2.7,9.1,3,9.3,3.1z"/>
	<path class="st0" d="M15.6,3.3L15.6,3.3c0.4,0,0.6-0.1,0.8-0.3c0.1-0.2,0.2-0.4,0.2-0.6l0,0V1.1l0,0c0-0.4-0.2-0.7-0.5-0.8l0,0   c0,0,0,0-0.1,0l0,0l0,0l0,0l0,0l0,0c-0.1,0-0.2,0-0.3,0h-0.1h-0.1c-0.5,0.1-0.8,0.5-0.8,0.9v1.3C14.7,2.9,15.1,3.3,15.6,3.3z"/>
</g>
</svg>