<svg xmlns="http://www.w3.org/2000/svg" width="21" height="21" viewBox="0 0 21 21" fill="none">
  <path d="M19.2878 0.887695H0.803659C0.359135 0.887695 0 1.24683 0 1.69135V20.1755C0 20.62 0.359135 20.9792 0.803659 20.9792H19.2878C19.7323 20.9792 20.0915 20.62 20.0915 20.1755V1.69135C20.0915 1.24683 19.7323 0.887695 19.2878 0.887695ZM5.95963 18.0081H2.97856V8.41949H5.95963V18.0081ZM4.47035 7.10852C4.12861 7.10852 3.79455 7.00718 3.5104 6.81732C3.22626 6.62746 3.00479 6.3576 2.87401 6.04188C2.74323 5.72615 2.70902 5.37874 2.77569 5.04356C2.84236 4.70839 3.00692 4.40051 3.24857 4.15887C3.49021 3.91722 3.79809 3.75266 4.13326 3.68599C4.46844 3.61932 4.81585 3.65353 5.13158 3.78431C5.44731 3.91509 5.71716 4.13655 5.90702 4.4207C6.09688 4.70485 6.19822 5.03891 6.19822 5.38065C6.19571 6.335 5.42219 7.10852 4.47035 7.10852ZM17.1205 18.0081H14.1419V13.3444C14.1419 12.2318 14.1218 10.8028 12.5923 10.8028C11.0428 10.8028 10.8042 12.0134 10.8042 13.264V18.0081H7.82814V8.41949H10.6862V9.73046H10.7263C11.1231 8.97703 12.0951 8.1809 13.5467 8.1809C16.5654 8.1809 17.1205 10.1674 17.1205 12.7492V18.0081Z" fill="white"/>
</svg>