<svg width="20" height="21" viewBox="0 0 20 21" fill="none" xmlns="http://www.w3.org/2000/svg"><path d="M0 10.4819C0 4.95909 4.47715 0.481934 10 0.481934C15.5228 0.481934 20 4.95909 20 10.4819C20 16.0048 15.5228 20.4819 10 20.4819C4.47715 20.4819 0 16.0048 0 10.4819Z" fill="#E1F4ED"></path><g clip-path="url(#clip0_11861_8771)"><path d="M11.32 10.4822L13.7949 8.00728C14.0683 7.73383 14.0683 7.29049 13.7949 7.01747L13.465 6.68753C13.1914 6.414 12.7481 6.414 12.4751 6.68753L10.0002 9.16235L7.52534 6.68702C7.25189 6.41357 6.80856 6.41357 6.53554 6.68702L6.20509 7.01696C5.93164 7.29049 5.93164 7.73383 6.20509 8.00685L8.68042 10.4822L6.2056 12.957C5.93206 13.2305 5.93206 13.6739 6.2056 13.9469L6.53554 14.2768C6.80899 14.5503 7.25232 14.5503 7.52534 14.2768L10.0002 11.8019L12.4751 14.2768C12.7486 14.5503 13.1919 14.5503 13.465 14.2768L13.7949 13.9469C14.0683 13.6734 14.0683 13.23 13.7949 12.957L11.32 10.4822Z" fill="black"></path></g><defs><clipPath id="clip0_11861_8771"><rect width="8" height="8" fill="white" transform="translate(6 6.48193)"></rect></clipPath></defs></svg>