<svg xmlns="http://www.w3.org/2000/svg" width="17" height="10" viewBox="0 0 17 10" fill="none">
<path d="M1.13413 5.66407H14.5583L12.3346 7.98244C12.0864 8.24116 12.0855 8.66161 12.3324 8.92156C12.5794 9.18154 12.9808 9.1825 13.2289 8.92381L16.541 5.47069C16.5413 5.47049 16.5414 5.47026 16.5416 5.47006C16.7891 5.21134 16.7899 4.78953 16.5417 4.52995C16.5415 4.52975 16.5413 4.52951 16.5411 4.52932L13.229 1.07619C12.9809 0.817539 12.5795 0.818435 12.3325 1.07845C12.0855 1.3384 12.0865 1.75885 12.3346 2.01757L14.5583 4.33594H1.13413C0.784042 4.33594 0.500256 4.63324 0.500256 5C0.500256 5.36676 0.784042 5.66407 1.13413 5.66407Z" fill="#1C2642"/>
</svg>