<svg xmlns="http://www.w3.org/2000/svg" xmlns:xlink="http://www.w3.org/1999/xlink" version="1.1" id="Layer_1" x="0px" y="0px" viewBox="0 0 20 20" style="enable-background:new 0 0 20 20;" xml:space="preserve">
<style type="text/css">
	.st0{fill:#2E364E;}
</style>
<g>
	<g>
		<path class="st0" d="M10,3.7c0,0.4,0.3,0.7,0.7,0.7h7.1c0.4,0,0.7,0.3,0.7,0.7v12.7c0,0.4-0.3,0.7-0.7,0.7H3.7    c-0.4,0-0.7-0.3-0.7-0.7V9.3C3,9,2.7,8.6,2.3,8.6S1.6,9,1.6,9.3v8.5c0,1.2,1,2.1,2.1,2.1h14.2c1.2,0,2.1-1,2.1-2.1V5.1    C20,3.9,19,3,17.8,3h-7.1C10.4,3,10,3.3,10,3.7z"/>
	</g>
</g>
<g>
	<g>
		<path class="st0" d="M0.9,0.9C0.4,1.4,0.1,2.1,0.1,2.8s0.3,1.4,0.8,1.9l9.3,9.3c0.1,0.1,0.2,0.1,0.3,0.2l4.2,1.4    c0.4,0.1,0.8-0.1,0.9-0.4c0-0.1,0-0.1,0-0.2c0-0.1,0-0.2,0-0.2l-1.4-4.2c0-0.1-0.1-0.2-0.2-0.3L4.8,0.9C3.7-0.1,2-0.1,0.9,0.9z"/>
	</g>
</g>
</svg>